<svg width="39" height="39" viewBox="0 0 39 39" fill="none" xmlns="http://www.w3.org/2000/svg">
<path d="M4.33333 39C3.14167 39 2.12117 38.5761 1.27183 37.7282C0.423944 36.8788 0 35.8583 0 34.6667V4.33333C0 3.14167 0.423944 2.12117 1.27183 1.27183C2.12117 0.423944 3.14167 0 4.33333 0H34.6667C35.8583 0 36.8788 0.423944 37.7282 1.27183C38.5761 2.12117 39 3.14167 39 4.33333V34.6667C39 35.8583 38.5761 36.8788 37.7282 37.7282C36.8788 38.5761 35.8583 39 34.6667 39H4.33333ZM10.8333 30.3333C11.4472 30.3333 11.9622 30.1253 12.3782 29.7093C12.7927 29.2948 13 28.7806 13 28.1667V21.6667C13 21.0528 12.7927 20.5378 12.3782 20.1218C11.9622 19.7073 11.4472 19.5 10.8333 19.5C10.2194 19.5 9.7045 19.7073 9.2885 20.1218C8.87395 20.5378 8.66667 21.0528 8.66667 21.6667V28.1667C8.66667 28.7806 8.87395 29.2948 9.2885 29.7093C9.7045 30.1253 10.2194 30.3333 10.8333 30.3333ZM28.1667 30.3333C28.7806 30.3333 29.2948 30.1253 29.7093 29.7093C30.1253 29.2948 30.3333 28.7806 30.3333 28.1667V10.8333C30.3333 10.2194 30.1253 9.7045 29.7093 9.2885C29.2948 8.87395 28.7806 8.66667 28.1667 8.66667C27.5528 8.66667 27.0386 8.87395 26.624 9.2885C26.208 9.7045 26 10.2194 26 10.8333V28.1667C26 28.7806 26.208 29.2948 26.624 29.7093C27.0386 30.1253 27.5528 30.3333 28.1667 30.3333ZM19.5 30.3333C20.1139 30.3333 20.6288 30.1253 21.0448 29.7093C21.4594 29.2948 21.6667 28.7806 21.6667 28.1667V26C21.6667 25.3861 21.4594 24.8712 21.0448 24.4552C20.6288 24.0406 20.1139 23.8333 19.5 23.8333C18.8861 23.8333 18.3719 24.0406 17.9573 24.4552C17.5413 24.8712 17.3333 25.3861 17.3333 26V28.1667C17.3333 28.7806 17.5413 29.2948 17.9573 29.7093C18.3719 30.1253 18.8861 30.3333 19.5 30.3333ZM19.5 19.5C20.1139 19.5 20.6288 19.292 21.0448 18.876C21.4594 18.4614 21.6667 17.9472 21.6667 17.3333V17.2792C21.6667 16.6653 21.4594 16.1597 21.0448 15.7625C20.6288 15.3653 20.1139 15.1667 19.5 15.1667C18.8861 15.1667 18.3719 15.3739 17.9573 15.7885C17.5413 16.2045 17.3333 16.7194 17.3333 17.3333V17.3875C17.3333 18.0014 17.5413 18.5069 17.9573 18.9042C18.3719 19.3014 18.8861 19.5 19.5 19.5Z" fill="#C57963"/>
</svg>
