<svg width="43" height="39" viewBox="0 0 43 39" fill="none" xmlns="http://www.w3.org/2000/svg">
<path d="M38.7 0H4.3C1.92855 0 0 1.9435 0 4.33333V34.6667C0 37.0565 1.92855 39 4.3 39H38.7C41.0715 39 43 37.0565 43 34.6667V4.33333C43 1.9435 41.0715 0 38.7 0ZM35.55 8.66667C36.1023 8.66667 36.55 9.11438 36.55 9.66667V12C36.55 12.5523 36.1023 13 35.55 13H26.8C26.2477 13 25.8 12.5523 25.8 12V9.66667C25.8 9.11438 26.2477 8.66667 26.8 8.66667H35.55ZM25.8 18.3333C25.8 17.781 26.2477 17.3333 26.8 17.3333H35.55C36.1023 17.3333 36.55 17.781 36.55 18.3333V20.6667C36.55 21.219 36.1023 21.6667 35.55 21.6667H26.8C26.2477 21.6667 25.8 21.219 25.8 20.6667V18.3333ZM5.3 34.6667C4.74772 34.6667 4.3 34.219 4.3 33.6667V5.33333C4.3 4.78105 4.74772 4.33333 5.3 4.33333H18.35C18.9023 4.33333 19.35 4.78105 19.35 5.33333V33.6667C19.35 34.219 18.9023 34.6667 18.35 34.6667H5.3Z" fill="#C57963"/>
</svg>
