<svg width="45" height="45" viewBox="0 0 45 45" fill="none" xmlns="http://www.w3.org/2000/svg">
<path d="M2.97917 25.2396H17.4792C18.1201 25.2396 18.7348 24.9806 19.188 24.5196C19.6412 24.0585 19.8958 23.4332 19.8958 22.7812V3.11458C19.8958 2.46259 19.6412 1.83731 19.188 1.37628C18.7348 0.915252 18.1201 0.65625 17.4792 0.65625H2.97917C2.33823 0.65625 1.72354 0.915252 1.27033 1.37628C0.817112 1.83731 0.5625 2.46259 0.5625 3.11458V22.7812C0.5625 23.4332 0.817112 24.0585 1.27033 24.5196C1.72354 24.9806 2.33823 25.2396 2.97917 25.2396ZM0.5625 42.4479C0.5625 43.0999 0.817112 43.7252 1.27033 44.1862C1.72354 44.6472 2.33823 44.9062 2.97917 44.9062H17.4792C18.1201 44.9062 18.7348 44.6472 19.188 44.1862C19.6412 43.7252 19.8958 43.0999 19.8958 42.4479V32.6146C19.8958 31.9626 19.6412 31.3373 19.188 30.8763C18.7348 30.4153 18.1201 30.1562 17.4792 30.1562H2.97917C2.33823 30.1562 1.72354 30.4153 1.27033 30.8763C0.817112 31.3373 0.5625 31.9626 0.5625 32.6146V42.4479ZM24.7292 42.4479C24.7292 43.0999 24.9838 43.7252 25.437 44.1862C25.8902 44.6472 26.5049 44.9062 27.1458 44.9062H41.6458C42.2868 44.9062 42.9015 44.6472 43.3547 44.1862C43.8079 43.7252 44.0625 43.0999 44.0625 42.4479V25.2396C44.0625 24.5876 43.8079 23.9623 43.3547 23.5013C42.9015 23.0403 42.2868 22.7812 41.6458 22.7812H27.1458C26.5049 22.7812 25.8902 23.0403 25.437 23.5013C24.9838 23.9623 24.7292 24.5876 24.7292 25.2396V42.4479ZM27.1458 17.8646H41.6458C42.2868 17.8646 42.9015 17.6056 43.3547 17.1446C43.8079 16.6835 44.0625 16.0582 44.0625 15.4062V3.11458C44.0625 2.46259 43.8079 1.83731 43.3547 1.37628C42.9015 0.915252 42.2868 0.65625 41.6458 0.65625H27.1458C26.5049 0.65625 25.8902 0.915252 25.437 1.37628C24.9838 1.83731 24.7292 2.46259 24.7292 3.11458V15.4062C24.7292 16.0582 24.9838 16.6835 25.437 17.1446C25.8902 17.6056 26.5049 17.8646 27.1458 17.8646Z" fill="#c57963"/>
</svg>
