<svg width="48" height="44" viewBox="0 0 48 44" fill="none" xmlns="http://www.w3.org/2000/svg">
<path d="M46.9675 9.69836C46.5427 8.97485 45.9345 8.37193 45.202 7.94838C44.4696 7.52484 43.638 7.29514 42.7883 7.28169H11.3217L9.89583 1.82002C9.75177 1.2928 9.43037 0.829056 8.98398 0.504323C8.53759 0.17959 7.9925 0.0130021 7.4375 0.0316908H2.52083C1.86884 0.0316908 1.24356 0.286303 0.782529 0.739516C0.321502 1.19273 0.0625 1.80742 0.0625 2.44836C0.0625 3.0893 0.321502 3.70399 0.782529 4.1572C1.24356 4.61041 1.86884 4.86502 2.52083 4.86502H5.56917L12.3542 29.66C12.4982 30.1873 12.8196 30.651 13.266 30.9757C13.7124 31.3005 14.2575 31.467 14.8125 31.4484H36.9375C37.3915 31.447 37.8362 31.3221 38.2224 31.0875C38.6086 30.8529 38.9211 30.5177 39.1254 30.1192L47.1887 14.2659C47.5382 13.5457 47.7009 12.7517 47.6623 11.9548C47.6237 11.1578 47.385 10.3826 46.9675 9.69836Z" fill="#C57963"/>
<path d="M13.583 43.5317C15.6196 43.5317 17.2705 41.9088 17.2705 39.9067C17.2705 37.9047 15.6196 36.2817 13.583 36.2817C11.5465 36.2817 9.89551 37.9047 9.89551 39.9067C9.89551 41.9088 11.5465 43.5317 13.583 43.5317Z" fill="#C57963"/>
<path d="M38.166 43.5317C40.2026 43.5317 41.8535 41.9088 41.8535 39.9067C41.8535 37.9047 40.2026 36.2817 38.166 36.2817C36.1295 36.2817 34.4785 37.9047 34.4785 39.9067C34.4785 41.9088 36.1295 43.5317 38.166 43.5317Z" fill="#C57963"/>
</svg>
