<svg width="44" height="44" viewBox="0 0 44 44" fill="none" xmlns="http://www.w3.org/2000/svg">
<path d="M42.35 8.8055V1.76C42.35 0.7865 41.5635 0 40.59 0H3.41003C2.43653 0 1.65003 0.7865 1.65003 1.76V8.8055C0.731534 8.8605 3.40776e-05 9.625 3.40776e-05 10.56V17.8035C-0.00348815 19.1347 0.266066 20.4526 0.792034 21.6755C1.02853 22.2365 1.32003 22.7645 1.65003 23.265V42.24C1.65003 43.208 2.43653 44 3.41003 44H18.48V34.32H25.52V44H40.59C41.5635 44 42.35 43.2135 42.35 42.24V23.265C42.6852 22.7632 42.9725 22.2311 43.208 21.6755C43.7305 20.449 44 19.1455 44 17.8035V10.56C44 9.625 43.2685 8.8605 42.35 8.8055ZM38.39 40.0455H29.04V32.56C29.04 31.5865 28.2535 30.8 27.28 30.8H16.72C15.7465 30.8 14.96 31.5865 14.96 32.56V40.0455H5.61003V26.7245C5.76953 26.8015 5.93453 26.8785 6.10503 26.9445C7.33153 27.4615 8.63503 27.72 9.97703 27.72C11.319 27.72 12.617 27.4615 13.849 26.9445C14.608 26.6255 15.323 26.2185 15.9775 25.729C15.9885 25.7235 15.9995 25.7235 16.0105 25.729C16.6671 26.2206 17.382 26.6289 18.139 26.9445C19.3655 27.4615 20.669 27.72 22.011 27.72C23.353 27.72 24.651 27.4615 25.883 26.9445C26.642 26.6255 27.357 26.2185 28.0115 25.729C28.0225 25.7235 28.0335 25.7235 28.0445 25.729C28.701 26.2206 29.416 26.6289 30.173 26.9445C31.3995 27.4615 32.703 27.72 34.045 27.72C35.387 27.72 36.685 27.4615 37.917 26.9445C38.082 26.873 38.247 26.8015 38.412 26.7245V40.0455H38.39ZM38.39 8.8H5.61003V3.96H38.39V8.8Z" fill="#C57963"/>
</svg>
