<svg width="33" height="34" viewBox="0 0 33 34" fill="none" xmlns="http://www.w3.org/2000/svg">
<path d="M16.5 0.251953C18.688 0.251953 20.7865 1.12115 22.3336 2.66832C23.8808 4.2155 24.75 6.31392 24.75 8.50195C24.75 10.69 23.8808 12.7884 22.3336 14.3356C20.7865 15.8828 18.688 16.752 16.5 16.752C14.312 16.752 12.2135 15.8828 10.6664 14.3356C9.11919 12.7884 8.25 10.69 8.25 8.50195C8.25 6.31392 9.11919 4.2155 10.6664 2.66832C12.2135 1.12115 14.312 0.251953 16.5 0.251953ZM16.5 20.877C25.6163 20.877 33 24.5688 33 29.127V33.252H0V29.127C0 24.5688 7.38375 20.877 16.5 20.877Z" fill="#C57963"/>
</svg>
