<svg width="33" height="34" viewBox="0 0 33 34" fill="none" xmlns="http://www.w3.org/2000/svg">
<path d="M24.2188 21.5848C26.2158 18.8593 27.1103 15.4802 26.7232 12.1235C26.3361 8.76674 24.6961 5.67995 22.1312 3.48067C19.5662 1.28139 16.2656 0.131802 12.8896 0.261904C9.51359 0.392006 6.31118 1.7922 3.92307 4.18236C1.53496 6.57252 0.137251 9.77637 0.00958311 13.1529C-0.118085 16.5295 1.0337 19.8298 3.23451 22.3935C5.43532 24.9572 8.52284 26.5953 11.8794 26.98C15.2359 27.3648 18.6139 26.4678 21.3376 24.4685H21.3355C21.3974 24.551 21.4634 24.6294 21.5377 24.7057L29.478 32.6472C29.8647 33.0342 30.3893 33.2518 30.9364 33.252C31.4835 33.2521 32.0083 33.035 32.3953 32.6482C32.7823 32.2614 32.9998 31.7367 33 31.1896C33.0002 30.6424 32.783 30.1175 32.3963 29.7305L24.456 21.789C24.3823 21.7144 24.303 21.6454 24.2188 21.5828V21.5848ZM24.7509 13.6558C24.7509 15.1456 24.4575 16.6208 23.8875 17.9973C23.3174 19.3737 22.4819 20.6244 21.4285 21.6778C20.3752 22.7313 19.1247 23.567 17.7485 24.1371C16.3723 24.7072 14.8972 25.0007 13.4076 25.0007C11.918 25.0007 10.4429 24.7072 9.0667 24.1371C7.69046 23.567 6.43998 22.7313 5.38666 21.6778C4.33333 20.6244 3.49779 19.3737 2.92773 17.9973C2.35768 16.6208 2.06427 15.1456 2.06427 13.6558C2.06427 10.6469 3.25937 7.76128 5.38666 5.6337C7.51394 3.50611 10.3992 2.31084 13.4076 2.31084C16.416 2.31084 19.3013 3.50611 21.4285 5.6337C23.5558 7.76128 24.7509 10.6469 24.7509 13.6558Z" fill="#C57963"/>
</svg>
