<svg width="367" height="274" viewBox="0 0 367 274" fill="none" xmlns="http://www.w3.org/2000/svg">
<path d="M353.195 203.882C325.725 246.254 267.339 271.085 218.586 273.177C186.594 274.549 155.601 266.4 125.043 257.933C96.3228 249.974 67.7686 241.424 42.1722 225.612C15.8882 209.358 -6.62343 183.578 1.92059 150.642C6.40315 133.405 16.8901 115.995 25.777 100.841C44.5213 68.8836 68.9997 38.7268 100.962 19.3199C152.552 -12.0034 219.793 0.46093 271.912 25.2243C307.72 42.2433 337.972 69.4629 355.392 105.475C365.735 126.859 368.802 152.411 364.342 175.695C362.514 185.736 358.726 195.315 353.195 203.882Z" fill="url(#paint0_linear_219_645)"/>
<defs>
<linearGradient id="paint0_linear_219_645" x1="209.84" y1="277.737" x2="149.298" y2="1.98198" gradientUnits="userSpaceOnUse">
<stop stop-color="#FCEDD1" stop-opacity="0"/>
<stop offset="0.291625" stop-color="#FCEDD1" stop-opacity="0.214503"/>
<stop offset="1" stop-color="#FCEDD1"/>
</linearGradient>
</defs>
</svg>
