<svg width="397" height="308" viewBox="0 0 397 308" fill="none" xmlns="http://www.w3.org/2000/svg">
<path d="M28.9041 45.3082C67.9767 6.64815 135.84 -6.164 188.168 2.96014C222.505 8.94857 253.563 24.828 284.085 40.9447C312.771 56.0938 341.143 71.8316 364.679 94.6032C388.844 118.005 406.78 150.658 390.028 183.69C381.249 200.975 366.045 217.046 353.068 231.091C325.698 260.709 292.65 287.077 254.146 300.273C191.997 321.57 123.4 292.664 73.7458 254.2C39.6319 227.768 13.8005 191.783 3.66014 149.435C-2.35943 124.29 0.327068 96.4061 10.4902 72.6852C14.7711 62.4338 21.0287 53.1303 28.9041 45.3082Z" fill="url(#paint0_linear_219_652)"/>
<defs>
<linearGradient id="paint0_linear_219_652" x1="198.529" y1="0.148071" x2="198.713" y2="307.457" gradientUnits="userSpaceOnUse">
<stop stop-color="#FCEDD1" stop-opacity="0"/>
<stop offset="0.291625" stop-color="#FCEDD1" stop-opacity="0.214503"/>
<stop offset="1" stop-color="#FCEDD1"/>
</linearGradient>
</defs>
</svg>
