<svg width="180" height="181" viewBox="0 0 180 181" fill="none" xmlns="http://www.w3.org/2000/svg">
<circle cx="90" cy="90.126" r="90" fill="#FCEDD1"/>
<path d="M60.708 78.2554C60.708 75.793 61.6862 73.4314 63.4274 71.6901C65.1687 69.9489 67.5303 68.9707 69.9927 68.9707H97.847C100.309 68.9707 102.671 69.9489 104.412 71.6901C106.153 73.4314 107.132 75.793 107.132 78.2554V106.11C107.132 108.572 106.153 110.934 104.412 112.675C102.671 114.416 100.309 115.394 97.847 115.394H69.9927C67.5303 115.394 65.1687 114.416 63.4274 112.675C61.6862 110.934 60.708 108.572 60.708 106.11V78.2554Z" stroke="white" stroke-width="5" stroke-linecap="round" stroke-linejoin="round"/>
<path d="M75.7958 89.8614C79.0006 89.8614 81.5987 87.2633 81.5987 84.0585C81.5987 80.8536 79.0006 78.2555 75.7958 78.2555C72.5909 78.2555 69.9928 80.8536 69.9928 84.0585C69.9928 87.2633 72.5909 89.8614 75.7958 89.8614Z" stroke="white" stroke-width="5" stroke-linecap="round" stroke-linejoin="round"/>
<path d="M89.7832 93.6292L69.9928 115.4H98.1557C100.536 115.4 102.819 114.454 104.503 112.771C106.186 111.087 107.132 108.804 107.132 106.424V106.115C107.132 105.033 106.726 104.618 105.994 103.817L96.64 93.6153C96.204 93.1397 95.6737 92.7602 95.0829 92.501C94.4921 92.2419 93.8537 92.1087 93.2085 92.11C92.5634 92.1113 91.9256 92.2471 91.3358 92.5087C90.746 92.7702 90.2173 93.1519 89.7832 93.6292V93.6292Z" stroke="white" stroke-width="5" stroke-linecap="round" stroke-linejoin="round"/>
</svg>
