<svg width="1047" height="812" viewBox="0 0 1047 812" fill="none" xmlns="http://www.w3.org/2000/svg">
<path d="M75.12 119.311C178.403 17.1728 357.792 -16.6761 496.112 7.42932C586.878 23.2504 668.977 65.2029 749.656 107.782C825.485 147.805 900.482 189.384 962.698 249.545C1026.57 311.37 1073.99 397.639 1029.7 484.908C1006.5 530.575 966.309 573.033 932.005 610.138C859.655 688.387 772.296 758.051 670.518 792.913C506.235 849.179 324.908 772.811 193.653 671.192C103.477 601.359 35.1956 506.288 8.39085 394.407C-7.52109 327.975 -0.419692 254.308 26.4452 191.639C37.7613 164.555 54.3024 139.976 75.12 119.311Z" fill="url(#paint0_linear_219_629)"/>
<defs>
<linearGradient id="paint0_linear_219_629" x1="523.5" y1="-1.93791e-08" x2="523.501" y2="929" gradientUnits="userSpaceOnUse">
<stop stop-color="#FCEDD1"/>
<stop offset="1" stop-color="#FCEDD1" stop-opacity="0"/>
</linearGradient>
</defs>
</svg>
