<svg width="73" height="73" viewBox="0 0 73 73" fill="none" xmlns="http://www.w3.org/2000/svg">
<path d="M49.5859 14.2538C49.5859 13.9067 49.4481 13.5738 49.2027 13.3284C48.9572 13.083 48.6244 12.9452 48.2773 12.9452H41.7344C38.4397 12.781 35.2139 13.9276 32.7619 16.1344C30.3099 18.3412 28.8311 21.4288 28.6484 24.7225V31.7889H22.1055C21.7584 31.7889 21.4256 31.9268 21.1802 32.1722C20.9347 32.4176 20.7969 32.7504 20.7969 33.0975V39.9022C20.7969 40.2493 20.9347 40.5821 21.1802 40.8275C21.4256 41.0729 21.7584 41.2108 22.1055 41.2108H28.6484V58.7459C28.6484 59.093 28.7863 59.4258 29.0317 59.6713C29.2771 59.9167 29.61 60.0545 29.957 60.0545H37.8086C38.1557 60.0545 38.4885 59.9167 38.7339 59.6713C38.9793 59.4258 39.1172 59.093 39.1172 58.7459V41.2108H45.9742C46.2652 41.215 46.5493 41.122 46.7816 40.9466C47.0138 40.7713 47.181 40.5235 47.2566 40.2424L49.141 33.4377C49.1931 33.2444 49.2001 33.0417 49.1615 32.8452C49.1229 32.6487 49.0397 32.4637 48.9183 32.3044C48.797 32.1451 48.6407 32.0158 48.4615 31.9265C48.2823 31.8371 48.085 31.79 47.8848 31.7889H39.1172V24.7225C39.1823 24.0747 39.4865 23.4744 39.9705 23.0389C40.4544 22.6033 41.0833 22.3638 41.7344 22.367H48.2773C48.6244 22.367 48.9572 22.2292 49.2027 21.9838C49.4481 21.7383 49.5859 21.4055 49.5859 21.0584V14.2538Z" fill="#FCEDD1"/>
<circle cx="36.5" cy="36.5" r="35" stroke="#FCEDD1" stroke-width="3"/>
</svg>
