<svg width="73" height="73" viewBox="0 0 73 73" fill="none" xmlns="http://www.w3.org/2000/svg">
<path d="M36.4942 25.4684C30.3896 25.4684 25.4628 30.3953 25.4628 36.5C25.4628 42.6047 30.3896 47.5316 36.4942 47.5316C42.5989 47.5316 47.5256 42.6047 47.5256 36.5C47.5256 30.3953 42.5989 25.4684 36.4942 25.4684ZM36.4942 43.6697C32.5464 43.6697 29.3246 40.4479 29.3246 36.5C29.3246 32.5521 32.5464 29.3303 36.4942 29.3303C40.4421 29.3303 43.6638 32.5521 43.6638 36.5C43.6638 40.4479 40.4421 43.6697 36.4942 43.6697ZM47.9774 22.4456C46.5521 22.4456 45.4011 23.5967 45.4011 25.022C45.4011 26.4473 46.5521 27.5984 47.9774 27.5984C49.4027 27.5984 50.5537 26.4527 50.5537 25.022C50.5541 24.6835 50.4878 24.3483 50.3585 24.0356C50.2291 23.7228 50.0394 23.4386 49.8001 23.1993C49.5608 22.96 49.2766 22.7702 48.9638 22.6409C48.651 22.5116 48.3158 22.4452 47.9774 22.4456ZM57.9976 36.5C57.9976 33.531 58.0245 30.5889 57.8578 27.6253C57.691 24.1829 56.9058 21.1279 54.3886 18.6107C51.8661 16.0881 48.8164 15.3082 45.3742 15.1414C42.4052 14.9747 39.4632 15.0016 36.4996 15.0016C33.5306 15.0016 30.5886 14.9747 27.625 15.1414C24.1828 15.3082 21.1277 16.0935 18.6106 18.6107C16.0881 21.1332 15.3082 24.1829 15.1414 27.6253C14.9747 30.5943 15.0016 33.5364 15.0016 36.5C15.0016 39.4636 14.9747 42.4111 15.1414 45.3747C15.3082 48.8171 16.0934 51.8721 18.6106 54.3893C21.1331 56.9119 24.1828 57.6918 27.625 57.8586C30.594 58.0253 33.536 57.9984 36.4996 57.9984C39.4685 57.9984 42.4106 58.0253 45.3742 57.8586C48.8164 57.6918 51.8715 56.9065 54.3886 54.3893C56.9111 51.8668 57.691 48.8171 57.8578 45.3747C58.0299 42.4111 57.9976 39.469 57.9976 36.5ZM53.2645 49.1828C52.8719 50.1617 52.3985 50.8932 51.6402 51.6462C50.8818 52.4046 50.1557 52.8779 49.1768 53.2706C46.3477 54.3947 39.6299 54.1419 36.4942 54.1419C33.3585 54.1419 26.6354 54.3947 23.8063 53.276C22.8274 52.8833 22.0959 52.41 21.3429 51.6516C20.5845 50.8932 20.1112 50.1671 19.7186 49.1882C18.5998 46.3537 18.8526 39.6357 18.8526 36.5C18.8526 33.3643 18.5998 26.641 19.7186 23.8118C20.1112 22.8329 20.5845 22.1014 21.3429 21.3484C22.1013 20.5954 22.8274 20.1167 23.8063 19.724C26.6354 18.6053 33.3585 18.8581 36.4942 18.8581C39.6299 18.8581 46.3531 18.6053 49.1822 19.724C50.1611 20.1167 50.8926 20.59 51.6456 21.3484C52.4039 22.1068 52.8772 22.8329 53.2699 23.8118C54.3886 26.641 54.1358 33.3643 54.1358 36.5C54.1358 39.6357 54.3886 46.3537 53.2645 49.1828Z" fill="#FCEDD1"/>
<circle cx="36.5" cy="36.5" r="35" stroke="#FCEDD1" stroke-width="3"/>
</svg>
