<svg width="300" height="300" viewBox="0 0 300 300" fill="none" xmlns="http://www.w3.org/2000/svg">
<rect width="300" height="300" fill="#C57963"/>
<path d="M90 108C90 101.635 92.5286 95.5303 97.0294 91.0294C101.53 86.5286 107.635 84 114 84H186C192.365 84 198.47 86.5286 202.971 91.0294C207.471 95.5303 210 101.635 210 108V180C210 186.365 207.471 192.47 202.971 196.971C198.47 201.471 192.365 204 186 204H114C107.635 204 101.53 201.471 97.0294 196.971C92.5286 192.47 90 186.365 90 180V108Z" stroke="white" stroke-width="5" stroke-linecap="round" stroke-linejoin="round"/>
<path d="M129 138C137.284 138 144 131.284 144 123C144 114.716 137.284 108 129 108C120.716 108 114 114.716 114 123C114 131.284 120.716 138 129 138Z" stroke="white" stroke-width="5" stroke-linecap="round" stroke-linejoin="round"/>
<path d="M165.156 147.739L114 204.013H186.798C192.952 204.013 198.853 201.569 203.204 197.218C207.556 192.867 210 186.965 210 180.811V180.013C210 177.217 208.95 176.143 207.06 174.073L182.88 147.703C181.753 146.474 180.382 145.493 178.855 144.823C177.328 144.153 175.678 143.809 174.01 143.813C172.342 143.816 170.694 144.167 169.169 144.843C167.645 145.519 166.278 146.506 165.156 147.739Z" stroke="white" stroke-width="5" stroke-linecap="round" stroke-linejoin="round"/>
</svg>
