<svg width="45" height="44" viewBox="0 0 45 44" fill="none" xmlns="http://www.w3.org/2000/svg">
<path d="M0.5 36.6667H18.8333V40.3333H0.5V36.6667ZM0.5 25.6667H18.8333V29.3333H0.5V25.6667ZM40.8333 18.3333H4.16667C3.19421 18.3333 2.26157 17.947 1.57394 17.2594C0.886308 16.5718 0.5 15.6391 0.5 14.6667V3.66667C0.5 2.69421 0.886308 1.76157 1.57394 1.07394C2.26157 0.386308 3.19421 0 4.16667 0H40.8333C41.8058 0 42.7384 0.386308 43.4261 1.07394C44.1137 1.76157 44.5 2.69421 44.5 3.66667V14.6667C44.5 15.6391 44.1137 16.5718 43.4261 17.2594C42.7384 17.947 41.8058 18.3333 40.8333 18.3333ZM4.16667 3.66667V14.6667H40.8333V3.66667H4.16667ZM40.8333 44H29.8333C28.8609 44 27.9282 43.6137 27.2406 42.9261C26.553 42.2384 26.1667 41.3058 26.1667 40.3333V29.3333C26.1667 28.3609 26.553 27.4282 27.2406 26.7406C27.9282 26.053 28.8609 25.6667 29.8333 25.6667H40.8333C41.8058 25.6667 42.7384 26.053 43.4261 26.7406C44.1137 27.4282 44.5 28.3609 44.5 29.3333V40.3333C44.5 41.3058 44.1137 42.2384 43.4261 42.9261C42.7384 43.6137 41.8058 44 40.8333 44ZM29.8333 29.3333V40.3333H40.8333V29.3333H29.8333Z" fill="#C57963"/>
</svg>
