<svg width="47" height="53" viewBox="0 0 47 53" fill="none" xmlns="http://www.w3.org/2000/svg">
<path d="M14.5712 38.3973L15.2857 38.1844V37.4389V31.7828V30.4485L14.005 30.823C6.49103 33.0206 1 39.948 1 48.1576C1 50.2824 2.72724 52 4.85163 52H42.1493C44.273 52 46 50.2822 46 48.1576C46 39.9427 40.4197 33.0207 32.9981 30.8239L31.7143 30.4439V31.7828V36.6445V37.4204L32.4658 37.6132C34.6846 38.1823 36.3214 40.195 36.3214 42.5781V46.4062C36.3214 46.6934 36.0808 46.9375 35.7857 46.9375H34.25C33.9549 46.9375 33.7143 46.6934 33.7143 46.4062C33.7143 46.1191 33.9549 45.875 34.25 45.875H35.25V44.875V42.5781C35.25 40.3292 33.427 38.5156 31.1786 38.5156C28.9301 38.5156 27.1071 40.3292 27.1071 42.5781V44.875V45.875H28.1071C28.4022 45.875 28.6429 46.1191 28.6429 46.4062C28.6429 46.6934 28.4022 46.9375 28.1071 46.9375H26.5714C26.2763 46.9375 26.0357 46.6934 26.0357 46.4062V42.5781C26.0357 40.195 27.6725 38.1823 29.8913 37.6132L30.6429 37.4204V36.6445V31.1799V30.2628L29.7292 30.1836C29.0493 30.1247 28.5196 30.0938 27.8864 30.0938H19.1136C18.4863 30.0938 17.8677 30.124 17.2579 30.1848L16.3571 30.2746V31.1799V37.4389V38.1844L17.0717 38.3973C18.8796 38.9357 20.1964 40.6047 20.1964 42.5781C20.1964 44.9803 18.2377 46.9375 15.8214 46.9375C13.4051 46.9375 11.4464 44.9803 11.4464 42.5781C11.4464 40.6047 12.7633 38.9357 14.5712 38.3973ZM23.5 1C16.1645 1 10.2143 6.92977 10.2143 14.25C10.2143 21.5712 16.1645 27.5 23.5 27.5C30.8355 27.5 36.7857 21.5712 36.7857 14.25C36.7857 6.92977 30.8355 1 23.5 1ZM15.8214 39.2812C13.9953 39.2812 12.5179 40.7502 12.5179 42.5781C12.5179 44.406 13.9953 45.875 15.8214 45.875C17.6475 45.875 19.125 44.406 19.125 42.5781C19.125 40.7502 17.6475 39.2812 15.8214 39.2812Z" stroke="#C57963" stroke-width="2"/>
</svg>
