<svg width="44" height="44" viewBox="0 0 44 44" fill="none" xmlns="http://www.w3.org/2000/svg">
<path d="M39.9968 28.6318L41.7627 21.3974V17.1098C41.0043 7.53716 33.5656 0 24.6102 0H21.6271V17.1098H10.8283L9.16486 9.08773C9.01828 8.36132 8.64969 7.71107 8.11977 7.24401C7.58985 6.77695 6.93017 6.5209 6.24931 6.51801H0V9.77701H6.24931L10.0224 27.9735C8.676 28.3631 7.4564 29.157 6.50176 30.265C5.54711 31.3731 4.89558 32.7511 4.62096 34.2429C4.34635 35.7347 4.45962 37.2808 4.94796 38.7058C5.4363 40.1309 6.28018 41.3782 7.38401 42.3062C8.48784 43.2342 9.8075 43.806 11.1935 43.9567C12.5795 44.1075 13.9764 43.8311 15.226 43.159C16.4757 42.4869 17.528 41.4459 18.2639 40.154C18.9998 38.862 19.3899 37.3707 19.3898 35.849C19.3898 35.5741 19.3774 35.3025 19.3525 35.0343H29.122C29.0975 35.3024 29.0851 35.5739 29.0847 35.849C29.0842 37.2939 29.4353 38.7129 30.1021 39.9606C30.769 41.2083 31.7275 42.2399 32.8795 42.9495C34.0315 43.6592 35.3355 44.0214 36.6578 43.999C37.9801 43.9767 39.2733 43.5705 40.4046 42.8223C41.5359 42.074 42.4648 41.0105 43.0959 39.7409C43.7271 38.4712 44.0378 37.041 43.9963 35.5969C43.9548 34.1527 43.5626 32.7466 42.8598 31.5227C42.157 30.2988 41.1689 29.301 39.9968 28.6318ZM24.6102 3.259C31.9197 3.259 37.9542 9.33685 38.7017 17.1098H24.6102V3.259ZM11.9322 40.7376C11.0472 40.7376 10.1821 40.4508 9.44626 39.9137C8.71042 39.3765 8.1369 38.6131 7.79823 37.7198C7.45956 36.8265 7.37095 35.8436 7.54361 34.8953C7.71626 33.9471 8.14242 33.076 8.7682 32.3924C9.39398 31.7087 10.1913 31.2431 11.0593 31.0545C11.9272 30.8658 12.8269 30.9627 13.6445 31.3327C14.4622 31.7027 15.161 32.3292 15.6527 33.1331C16.1444 33.937 16.4068 34.8822 16.4068 35.849C16.4054 37.1451 15.9336 38.3877 15.0947 39.3041C14.2559 40.2206 13.1185 40.7361 11.9322 40.7376ZM30.0881 31.7753H18.3865C17.8259 30.7166 17.0547 29.809 16.1299 29.1196C15.2051 28.4302 14.1503 27.9766 13.0435 27.7924L11.5041 20.3688H38.7797V20.9697L37.1297 27.7288C36.9343 27.7113 36.7384 27.7021 36.5424 27.7012C35.234 27.7023 33.9489 28.0793 32.8161 28.7944C31.6832 29.5095 30.7424 30.5375 30.0881 31.7753ZM36.5424 40.7376C35.6574 40.7376 34.7923 40.4508 34.0564 39.9137C33.3206 39.3765 32.7471 38.6131 32.4084 37.7198C32.0697 36.8265 31.9811 35.8436 32.1538 34.8953C32.3264 33.9471 32.7526 33.076 33.3784 32.3924C34.0042 31.7087 34.8014 31.2431 35.6694 31.0545C36.5374 30.8658 37.4371 30.9627 38.2547 31.3327C39.0723 31.7027 39.7712 32.3292 40.2628 33.1331C40.7545 33.937 41.0169 34.8822 41.0169 35.849C41.0156 37.1451 40.5437 38.3877 39.7049 39.3041C38.866 40.2206 37.7287 40.7361 36.5424 40.7376Z" fill="#C57963"/>
</svg>
