<svg width="48" height="48" viewBox="0 0 48 48" fill="none" xmlns="http://www.w3.org/2000/svg">
<path d="M28.1808 37.1998H19.8208C19.4707 37.1998 19.1349 37.0607 18.8874 36.8132C18.6399 36.5656 18.5008 36.2299 18.5008 35.8798V30.8198C18.5008 30.4697 18.3617 30.134 18.1142 29.8864C17.8666 29.6389 17.5309 29.4998 17.1808 29.4998H12.1208C11.7707 29.4998 11.4349 29.3607 11.1874 29.1132C10.9399 28.8656 10.8008 28.5299 10.8008 28.1798V19.8198C10.8008 19.4697 10.9399 19.134 11.1874 18.8864C11.4349 18.6389 11.7707 18.4998 12.1208 18.4998H17.1808C17.5309 18.4998 17.8666 18.3607 18.1142 18.1132C18.3617 17.8656 18.5008 17.5299 18.5008 17.1798V12.1198C18.5008 11.7697 18.6399 11.434 18.8874 11.1864C19.1349 10.9389 19.4707 10.7998 19.8208 10.7998H28.1808C28.5309 10.7998 28.8666 10.9389 29.1142 11.1864C29.3617 11.434 29.5008 11.7697 29.5008 12.1198V17.1798C29.5008 17.5299 29.6399 17.8656 29.8874 18.1132C30.1349 18.3607 30.4707 18.4998 30.8208 18.4998H35.8808C36.2309 18.4998 36.5666 18.6389 36.8142 18.8864C37.0617 19.134 37.2008 19.4697 37.2008 19.8198V28.1798C37.2008 28.5299 37.0617 28.8656 36.8142 29.1132C36.5666 29.3607 36.2309 29.4998 35.8808 29.4998H30.8208C30.4707 29.4998 30.1349 29.6389 29.8874 29.8864C29.6399 30.134 29.5008 30.4697 29.5008 30.8198V35.8798C29.5008 36.2299 29.3617 36.5656 29.1142 36.8132C28.8666 37.0607 28.5309 37.1998 28.1808 37.1998V37.1998Z" stroke="#C57963" stroke-width="3"/>
<path d="M24 46C36.1506 46 46 36.1506 46 24C46 11.8494 36.1506 2 24 2C11.8494 2 2 11.8494 2 24C2 36.1506 11.8494 46 24 46Z" stroke="#C57963" stroke-width="3" stroke-linecap="round" stroke-linejoin="round"/>
</svg>
