<svg width="44" height="50" viewBox="0 0 44 50" fill="none" xmlns="http://www.w3.org/2000/svg">
<path d="M39.75 19.25V20.75H41.25H42.5V48H1.5V20.75H2.75H4.25V19.25V13.75C4.25 6.98844 9.73843 1.50001 16.5 1.50001C18.2409 1.50001 19.9043 1.86779 21.3929 2.52666L21.9989 2.79489L22.6053 2.52748C24.1467 1.8477 25.8133 1.49773 27.498 1.50001H27.5C34.2616 1.50001 39.75 6.98844 39.75 13.75V19.25ZM6.75 19.25V20.75H8.25H13.75H15.25V19.25V13.75C15.25 10.9976 16.1981 8.47591 17.755 6.40001L19.555 4.00001H16.555H16.5C11.1341 4.00001 6.75 8.38409 6.75 13.75V19.25ZM35.75 20.75H37.25V19.25V13.75C37.25 8.38409 32.8659 4.00001 27.5 4.00001H27.445H24.4147L26.2522 6.40959C27.8619 8.52038 28.7388 11.0987 28.75 13.7532V19.25V20.75H30.25H35.75ZM23.0045 6.53098L22 5.62532L20.9955 6.53098C19.0258 8.30695 17.75 10.8749 17.75 13.75V19.25V20.75H19.25H24.75H26.25V19.25V13.75C26.25 10.8749 24.9742 8.30695 23.0045 6.53098Z" stroke="#C57963" stroke-width="3"/>
</svg>
