<svg width="37" height="37" viewBox="0 0 37 37" fill="none" xmlns="http://www.w3.org/2000/svg">
<path d="M1.60254 22.6138C1.77575 22.5687 1.949 22.5324 2.11009 22.5029" stroke="#C57963" stroke-miterlimit="10"/>
<path d="M34.8062 23.2598C34.9794 23.2909 35.1526 23.3239 35.3258 23.3585" stroke="#C57963" stroke-miterlimit="10"/>
<path d="M3.05396 26.7349C3.22717 26.7349 3.40039 26.7349 3.5736 26.7349" stroke="#C57963" stroke-miterlimit="10"/>
<path d="M33.0654 27.3135C33.2386 27.3325 33.4119 27.3551 33.5851 27.3776" stroke="#C57963" stroke-miterlimit="10"/>
<path d="M7.37817 32.0098L7.7471 32.0687L7.89089 32.0894" stroke="#C57963" stroke-miterlimit="10"/>
<path d="M18.5 36C28.165 36 36 28.165 36 18.5C36 8.83502 28.165 1 18.5 1C8.83502 1 1 8.83502 1 18.5C1 28.165 8.83502 36 18.5 36Z" stroke="#C57963" stroke-miterlimit="10"/>
<path d="M29.2439 32.3113C30.4861 30.3259 31.2428 28.0756 31.4524 25.743C31.6205 23.7986 31.3948 21.8404 30.7889 19.9853C30.2364 18.234 29.4206 15.9597 28.2011 14.5671C27.7663 16.0221 27.995 17.5879 27.5879 19.0464C27.3662 19.8397 26.7219 20.8427 25.7917 20.8479C24.6225 20.8479 24.3401 19.4916 24.179 18.5753C23.8124 16.6219 22.9766 14.7869 21.7436 13.2281C20.1951 11.224 16.4415 9.02069 17.2036 6.03965L17.2746 5.979L17.2019 6.04485C16.1626 7.04084 15.9894 9.45371 16.128 10.7407C16.3289 12.6322 17.4479 14.2587 17.829 16.1104C17.9693 16.7894 18.1962 18.1076 17.6419 18.6671C17.0876 19.2266 16.1817 18.7675 15.6793 18.3605C14.8132 17.6676 14.1325 16.4309 12.9079 16.3373C13.3617 16.372 13.8658 18.9598 13.9299 19.3443C14.1031 20.3663 14.1758 21.5633 13.7844 22.5454C12.9737 24.572 11.129 23.7856 10.0273 22.4796C8.5238 20.6989 8.18774 18.234 6.93193 16.2992C5.75925 17.5429 5.54619 19.5106 5.49943 21.1389C5.37471 25.2129 5.94289 29.157 8.0388 32.5469" stroke="#C57963" stroke-miterlimit="10"/>
<path d="M3.16528 22.4172C4.55101 22.4172 5.95926 22.781 7.32246 22.9905C9.54136 23.337 11.9144 23.0599 14.1922 22.9681C16.5999 22.8693 18.9435 23.2123 21.3374 23.3976C23.8923 23.5951 26.3814 23.2244 28.9191 22.9542C30.7106 22.7882 32.5162 22.8605 34.2887 23.169" stroke="#C57963" stroke-miterlimit="10" stroke-dasharray="6.11 6.11"/>
<path d="M4.59131 26.8335C5.50935 26.9565 6.42394 27.1643 7.32293 27.3012C9.54182 27.6476 11.9149 27.3722 14.1927 27.2786C16.6004 27.1816 18.944 27.5246 21.3379 27.7099C23.8928 27.9074 26.3819 27.5368 28.9195 27.2665C30.1292 27.1489 31.3474 27.1489 32.557 27.2665" stroke="#C57963" stroke-miterlimit="10" stroke-dasharray="5.89 5.89"/>
<path d="M8.89307 32.1936C10.769 32.3217 12.7211 32.1225 14.6092 32.0463C17.0169 31.9476 19.3605 32.2905 21.7543 32.4759C24.0598 32.6491 26.3117 32.365 28.5946 32.1122" stroke="#C57963" stroke-miterlimit="10" stroke-dasharray="5.85 5.85"/>
<path d="M29.1038 32.06L29.3428 32.034C29.4346 32.0236 29.5281 32.015 29.6217 32.0098" stroke="#C57963" stroke-miterlimit="10"/>
</svg>
