<svg width="37" height="37" viewBox="0 0 37 37" fill="none" xmlns="http://www.w3.org/2000/svg">
<path d="M18.9883 36C28.6533 36 36.4883 28.165 36.4883 18.5C36.4883 8.83502 28.6533 1 18.9883 1C9.3233 1 1.48828 8.83502 1.48828 18.5C1.48828 28.165 9.3233 36 18.9883 36Z" stroke="#C57963" stroke-miterlimit="10"/>
<path d="M17.6163 25.3441C15.5661 21.8486 13.9232 18.1677 12.4831 14.388C13.0186 19.4709 15.0601 23.9802 17.7931 28.2278L17.6856 28.3509C17.0617 28.1516 16.424 27.9835 15.8157 27.746C12.6062 26.4965 10.0222 24.5382 8.74672 21.2178C7.75023 18.6269 7.91141 15.9737 8.66354 13.3655C9.08986 11.8907 9.72588 10.4731 10.2753 9.03293C10.3879 8.73312 10.5404 8.49746 10.9476 8.66903C14.3253 10.0901 17.2662 12.0571 19.2297 15.2545C19.4481 15.6115 19.5417 15.9182 19.2401 16.3064C17.2437 18.8591 16.8485 21.7446 17.521 24.8415C17.5574 25.0113 17.5851 25.1777 17.6163 25.3441Z" fill="#C57963"/>
<path d="M25.559 16.7137C22.5747 19.8123 20.7706 23.5799 19.4934 27.6559C19.4137 27.6213 19.3201 27.6126 19.3097 27.5727C18.0151 24.8138 17.5022 21.9821 18.5818 19.0255C19.256 17.1781 20.5245 15.8021 22.1189 14.7051C23.8935 13.4833 25.8623 12.7035 27.9471 12.2113C28.1204 12.1714 28.4895 12.3309 28.5328 12.4712C29.5466 15.7033 29.9088 18.9631 28.5034 22.1761C27.1793 25.2037 24.6491 26.8639 21.6302 27.8951C21.2524 28.0233 20.859 28.1048 20.3322 28.2417C21.7504 24.2602 23.4988 20.4041 25.559 16.7137Z" fill="#C57963"/>
</svg>
