<svg width="37" height="37" viewBox="0 0 37 37" fill="none" xmlns="http://www.w3.org/2000/svg">
<path d="M20.3038 23.6152C22.9149 23.6152 25.0315 21.4986 25.0315 18.8876C25.0315 16.2766 22.9149 14.1599 20.3038 14.1599C17.6928 14.1599 15.5762 16.2766 15.5762 18.8876C15.5762 21.4986 17.6928 23.6152 20.3038 23.6152Z" fill="#C57963"/>
<path d="M24.344 11.719C25.93 11.719 27.2156 10.4334 27.2156 8.84744C27.2156 7.26149 25.93 5.97583 24.344 5.97583C22.7581 5.97583 21.4724 7.26149 21.4724 8.84744C21.4724 10.4334 22.7581 11.719 24.344 11.719Z" fill="#C57963"/>
<path d="M30.5076 23.6136C32.0935 23.6136 33.3792 22.3279 33.3792 20.742C33.3792 19.156 32.0935 17.8704 30.5076 17.8704C28.9217 17.8704 27.636 19.156 27.636 20.742C27.636 22.3279 28.9217 23.6136 30.5076 23.6136Z" fill="#C57963"/>
<path d="M25.5222 31.7977C27.1082 31.7977 28.3938 30.512 28.3938 28.9261C28.3938 27.3401 27.1082 26.0544 25.5222 26.0544C23.9363 26.0544 22.6506 27.3401 22.6506 28.9261C22.6506 30.512 23.9363 31.7977 25.5222 31.7977Z" fill="#C57963"/>
<path d="M10.437 29.9918C12.023 29.9918 13.3086 28.7061 13.3086 27.1201C13.3086 25.5342 12.023 24.2485 10.437 24.2485C8.85109 24.2485 7.56543 25.5342 7.56543 27.1201C7.56543 28.7061 8.85109 29.9918 10.437 29.9918Z" fill="#C57963"/>
<path d="M10.437 11.719C12.023 11.719 13.3086 10.4334 13.3086 8.84744C13.3086 7.26149 12.023 5.97583 10.437 5.97583C8.85109 5.97583 7.56543 7.26149 7.56543 8.84744C7.56543 10.4334 8.85109 11.719 10.437 11.719Z" fill="#C57963"/>
<path d="M16.9576 15.5462L12.3235 10.9138" stroke="#C57963" stroke-miterlimit="10"/>
<path d="M23.1967 11.4829L22.1274 14.5226" stroke="#C57963" stroke-miterlimit="10"/>
<path d="M29.196 21.2246L24.3435 19.7273" stroke="#C57963" stroke-miterlimit="10"/>
<path d="M24.3443 27.1208L21.4709 22.0864" stroke="#C57963" stroke-miterlimit="10"/>
<path d="M16.9581 21.6033L11.9133 25.513" stroke="#C57963" stroke-miterlimit="10"/>
<path d="M18.7461 36C28.4111 36 36.2461 28.165 36.2461 18.5C36.2461 8.83502 28.4111 1 18.7461 1C9.08111 1 1.24609 8.83502 1.24609 18.5C1.24609 28.165 9.08111 36 18.7461 36Z" stroke="#C57963" stroke-miterlimit="10"/>
</svg>
