<svg width="40" height="40" viewBox="0 0 40 40" fill="none" xmlns="http://www.w3.org/2000/svg">
<path d="M20 40C31.0457 40 40 31.0457 40 20C40 8.95429 31.0457 0 20 0C8.95429 0 0 8.95429 0 20C0 31.0457 8.95429 40 20 40ZM18.5714 12.8571C18.5714 12.4783 18.7219 12.1149 18.9898 11.847C19.2578 11.5791 19.6211 11.4286 20 11.4286C20.3789 11.4286 20.7422 11.5791 21.0102 11.847C21.2781 12.1149 21.4286 12.4783 21.4286 12.8571V18.5714H27.1429C27.5217 18.5714 27.8851 18.7219 28.153 18.9898C28.4209 19.2578 28.5714 19.6211 28.5714 20C28.5714 20.3789 28.4209 20.7422 28.153 21.0102C27.8851 21.2781 27.5217 21.4286 27.1429 21.4286H21.4286V27.1429C21.4286 27.5217 21.2781 27.8851 21.0102 28.153C20.7422 28.4209 20.3789 28.5714 20 28.5714C19.6211 28.5714 19.2578 28.4209 18.9898 28.153C18.7219 27.8851 18.5714 27.5217 18.5714 27.1429V21.4286H12.8571C12.4783 21.4286 12.1149 21.2781 11.847 21.0102C11.5791 20.7422 11.4286 20.3789 11.4286 20C11.4286 19.6211 11.5791 19.2578 11.847 18.9898C12.1149 18.7219 12.4783 18.5714 12.8571 18.5714H18.5714V12.8571Z" fill="#C57963"/>
</svg>
