<svg width="39" height="40" viewBox="0 0 39 40" fill="none" xmlns="http://www.w3.org/2000/svg">
<path d="M15.75 7.375H23.25C23.25 6.38044 22.8549 5.42661 22.1516 4.72335C21.4484 4.02009 20.4946 3.625 19.5 3.625C18.5054 3.625 17.5516 4.02009 16.8484 4.72335C16.1451 5.42661 15.75 6.38044 15.75 7.375ZM12.9375 7.375C12.9375 6.5132 13.1072 5.65984 13.437 4.86364C13.7668 4.06744 14.2502 3.344 14.8596 2.73461C15.469 2.12523 16.1924 1.64184 16.9886 1.31204C17.7848 0.982244 18.6382 0.8125 19.5 0.8125C20.3618 0.8125 21.2152 0.982244 22.0114 1.31204C22.8076 1.64184 23.531 2.12523 24.1404 2.73461C24.7498 3.344 25.2332 4.06744 25.563 4.86364C25.8928 5.65984 26.0625 6.5132 26.0625 7.375H36.8438C37.2167 7.375 37.5744 7.52316 37.8381 7.78688C38.1018 8.0506 38.25 8.40829 38.25 8.78125C38.25 9.15421 38.1018 9.5119 37.8381 9.77562C37.5744 10.0393 37.2167 10.1875 36.8438 10.1875H34.3688L32.175 32.8956C32.0067 34.6356 31.1963 36.2505 29.9019 37.4253C28.6075 38.6001 26.9218 39.2507 25.1737 39.25H13.8263C12.0785 39.2502 10.3933 38.5995 9.09928 37.4247C7.80525 36.2499 6.99513 34.6353 6.82688 32.8956L4.63125 10.1875H2.15625C1.78329 10.1875 1.4256 10.0393 1.16188 9.77562C0.898158 9.5119 0.75 9.15421 0.75 8.78125C0.75 8.40829 0.898158 8.0506 1.16188 7.78688C1.4256 7.52316 1.78329 7.375 2.15625 7.375H12.9375ZM16.6875 16.2812C16.6875 15.9083 16.5393 15.5506 16.2756 15.2869C16.0119 15.0232 15.6542 14.875 15.2812 14.875C14.9083 14.875 14.5506 15.0232 14.2869 15.2869C14.0232 15.5506 13.875 15.9083 13.875 16.2812V30.3438C13.875 30.7167 14.0232 31.0744 14.2869 31.3381C14.5506 31.6018 14.9083 31.75 15.2812 31.75C15.6542 31.75 16.0119 31.6018 16.2756 31.3381C16.5393 31.0744 16.6875 30.7167 16.6875 30.3438V16.2812ZM23.7188 14.875C23.3458 14.875 22.9881 15.0232 22.7244 15.2869C22.4607 15.5506 22.3125 15.9083 22.3125 16.2812V30.3438C22.3125 30.7167 22.4607 31.0744 22.7244 31.3381C22.9881 31.6018 23.3458 31.75 23.7188 31.75C24.0917 31.75 24.4494 31.6018 24.7131 31.3381C24.9768 31.0744 25.125 30.7167 25.125 30.3438V16.2812C25.125 15.9083 24.9768 15.5506 24.7131 15.2869C24.4494 15.0232 24.0917 14.875 23.7188 14.875Z" fill="#C57963"/>
</svg>
