<svg width="22" height="24" viewBox="0 0 22 24" fill="none" xmlns="http://www.w3.org/2000/svg">
<path d="M2.00122 10.5C1.17279 10.5 0.501221 11.1716 0.501221 12C0.501221 12.8284 1.17279 13.5 2.00122 13.5L2.00122 10.5ZM21.0619 13.0607C21.6477 12.4749 21.6477 11.5251 21.0619 10.9393L11.5159 1.3934C10.9302 0.807611 9.9804 0.807612 9.39462 1.3934C8.80883 1.97918 8.80883 2.92893 9.39462 3.51472L17.8799 12L9.39462 20.4853C8.80883 21.0711 8.80883 22.0208 9.39462 22.6066C9.98041 23.1924 10.9302 23.1924 11.5159 22.6066L21.0619 13.0607ZM2.00122 13.5L20.0012 13.5L20.0012 10.5L2.00122 10.5L2.00122 13.5Z" fill="#FCEDD1"/>
</svg>
